<svg id="audit" xmlns="http://www.w3.org/2000/svg" width="140.003" height="140.003" viewBox="0 0 140.003 140.003">
  <path id="Path_2995" data-name="Path 2995" d="M32,162.347H133.381V32H53.724L32,53.724Zm0,0" transform="translate(-22.345 -22.345)" fill="#348fd9"/>
  <path id="Path_2996" data-name="Path 2996" d="M0,130.347H101.381V0H21.724L0,21.724Zm0,0" fill="#60d1e0"/>
  <path id="Path_2997" data-name="Path 2997" d="M0,157.381V169.45H101.381V56Zm0,0" transform="translate(0 -39.103)" fill="#5ac6d4"/>
  <path id="Path_2998" data-name="Path 2998" d="M21.724,21.724V0L0,21.724Zm0,0" fill="#9fe4ed"/>
  <g id="Group_1254" data-name="Group 1254" transform="translate(9.655 9.655)">
    <path id="Path_2999" data-name="Path 2999" d="M106.829,96H39.241A7.242,7.242,0,0,0,32,103.241v77.242a7.242,7.242,0,0,0,7.241,7.241h67.587a7.242,7.242,0,0,0,7.241-7.241V103.241A7.242,7.242,0,0,0,106.829,96Zm2.414,7.241v7.241H94.759v-9.655h12.069A2.414,2.414,0,0,1,109.242,103.241ZM51.311,170.829v-7.241H89.932v7.241Zm38.621,4.828V182.9H51.311v-7.241Zm0-60.346v7.241H51.311v-7.241Zm-38.621-4.828v-9.655H89.932v9.655Zm0,36.207v-7.241H89.932v7.241Zm38.621,4.828v7.241H51.311v-7.241Zm-38.621-16.9V127.38H89.932v7.241Zm-4.828-12.069H36.828v-7.241h9.655Zm0,4.828v7.241H36.828V127.38Zm0,12.069v7.241H36.828v-7.241Zm0,12.069v7.241H36.828v-7.241Zm0,12.069v7.241H36.828v-7.241Zm48.277,0h14.483v7.241H94.759Zm0-4.828v-7.241h14.483v7.241Zm0-12.069v-7.241h14.483v7.241Zm0-12.069V127.38h14.483v7.241Zm0-12.069v-7.241h14.483v7.241ZM39.241,100.828h7.241v9.655H36.828v-7.241A2.414,2.414,0,0,1,39.241,100.828Zm-2.414,79.656v-4.828h9.655V182.9H39.241A2.414,2.414,0,0,1,36.828,180.484Zm70,2.414H94.759v-7.241h14.483v4.828A2.414,2.414,0,0,1,106.829,182.9Zm0,0" transform="translate(-32 -76.689)" fill="#3a9cc9"/>
    <path id="Path_3000" data-name="Path 3000" d="M112,64h19.311v4.828H112Zm0,0" transform="translate(-87.862 -54.345)" fill="#3a9cc9"/>
    <path id="Path_3001" data-name="Path 3001" d="M192,64h9.655v4.828H192Zm0,0" transform="translate(-143.723 -54.345)" fill="#3a9cc9"/>
    <path id="Path_3002" data-name="Path 3002" d="M112,32h33.794v4.828H112Zm0,0" transform="translate(-87.862 -32)" fill="#3a9cc9"/>
  </g>
  <path id="Path_3003" data-name="Path 3003" d="M384.294,377.053,359.241,352,352,359.241l25.053,25.053a5.12,5.12,0,0,0,7.241-7.241Zm0,0" transform="translate(-245.791 -245.791)" fill="#e94f4f"/>
  <path id="Path_3004" data-name="Path 3004" d="M368.867,361.626,359.241,352,352,359.241l9.626,9.626A36.344,36.344,0,0,0,368.867,361.626Zm0,0" transform="translate(-245.791 -245.791)" fill="#cf3a3a"/>
  <path id="Path_3005" data-name="Path 3005" d="M248.415,220.207A36.207,36.207,0,1,1,212.207,184,36.208,36.208,0,0,1,248.415,220.207Zm0,0" transform="translate(-122.896 -128.482)" fill="#e94f4f"/>
  <path id="Path_3006" data-name="Path 3006" d="M261.1,242.552A26.552,26.552,0,1,1,234.552,216,26.552,26.552,0,0,1,261.1,242.552Zm0,0" transform="translate(-145.241 -150.827)" fill="#48add9"/>
  <path id="Path_3007" data-name="Path 3007" d="M267.449,253.724A21.724,21.724,0,1,1,245.724,232,21.724,21.724,0,0,1,267.449,253.724Zm0,0" transform="translate(-156.413 -161.999)" fill="#4db7e5"/>
  <path id="Path_3008" data-name="Path 3008" d="M208,276.068c12.841-16.093,40.263-16.093,53.1,0C248.263,292.161,220.841,292.161,208,276.068Zm0,0" transform="translate(-145.241 -184.342)" fill="#e0e0de"/>
  <path id="Path_3009" data-name="Path 3009" d="M208,276.068c12.841-16.093,40.263-16.093,53.1,0C248.263,292.161,220.841,292.161,208,276.068Zm0,0" transform="translate(-145.241 -184.342)" fill="#e0e0de"/>
  <path id="Path_3010" data-name="Path 3010" d="M267.062,269.6c-7.323,10.809-19.115,15.783-28.43,18.072,14,7.725,33.588,5.18,43.861-7.693A31.8,31.8,0,0,0,267.062,269.6Zm0,0" transform="translate(-166.63 -188.255)" fill="#d6d6d4"/>
  <path id="Path_3011" data-name="Path 3011" d="M280.138,276.069A12.069,12.069,0,1,1,268.069,264,12.07,12.07,0,0,1,280.138,276.069Zm0,0" transform="translate(-178.758 -184.344)" fill="#348fd9"/>
  <path id="Path_3012" data-name="Path 3012" d="M260.5,291.905a12.026,12.026,0,1,0,20.034-13.034A38.445,38.445,0,0,1,260.5,291.905Zm0,0" transform="translate(-181.903 -194.728)" fill="#3086cd"/>
  <path id="Path_3013" data-name="Path 3013" d="M289.655,292.828A4.828,4.828,0,1,1,284.828,288,4.828,4.828,0,0,1,289.655,292.828Zm0,0" transform="translate(-195.516 -201.102)" fill="#3d4d63"/>
</svg>
