<svg id="cable" xmlns="http://www.w3.org/2000/svg" width="57.257" height="56" viewBox="0 0 57.257 56">
  <path id="Path_2902" data-name="Path 2902" d="M67,28A28,28,0,1,1,39,0,28,28,0,0,1,67,28Zm0,0" transform="translate(-9.743 0)" fill="#290c53"/>
  <path id="Path_2905" data-name="Path 2905" d="M31.143,224.714A1.143,1.143,0,0,1,30,223.571v-3.429a1.143,1.143,0,0,1,2.286,0v3.429A1.143,1.143,0,0,1,31.143,224.714Zm12.167,2.021,2.424-2.425a1.143,1.143,0,0,0-1.616-1.616l-2.425,2.424a1.143,1.143,0,0,0,1.617,1.617Zm3.833,9.408h3.429a1.143,1.143,0,0,0,0-2.286H47.143a1.143,1.143,0,0,0,0,2.286Zm-3.094,7.665,2.424,2.425a1.143,1.143,0,0,0,1.617-1.617l-2.425-2.424a1.143,1.143,0,1,0-1.616,1.616Zm0,0" transform="translate(-26.571 -193.971)" fill="#c0fbff"/>
  <path id="Path_2906" data-name="Path 2906" d="M57.872,156.385a1.714,1.714,0,0,1-.628,2.342A33.665,33.665,0,0,0,40.8,182.758a28.027,28.027,0,0,1-2.654-4.183c.023-.089.044-.178.068-.266A36.9,36.9,0,0,1,55.53,155.757a1.715,1.715,0,0,1,2.342.628Zm0,0" transform="translate(-33.788 -137.753)" fill="#ff393a"/>
  <path id="Path_2907" data-name="Path 2907" d="M175.819,56.164l-9.9,5.714a1.715,1.715,0,0,1-2.342-.628l-.286-.495-4.949,2.857A1.714,1.714,0,0,1,156,62.985l-2.857-4.949a1.714,1.714,0,0,1,.627-2.342l4.949-2.857-.286-.5A1.714,1.714,0,0,1,159.065,50l9.9-5.714a1.714,1.714,0,0,1,2.342.627l5.143,8.908a1.715,1.715,0,0,1-.628,2.342Zm0,0" transform="translate(-135.441 -39.022)" fill="#ff6466"/>
  <path id="Path_2908" data-name="Path 2908" d="M189.105,79.174l-9.9,5.714a1.715,1.715,0,0,1-2.342-.628l-.286-.495-4.949,2.857A1.714,1.714,0,0,1,169.29,86l-1.143-1.979a1.715,1.715,0,0,1,.627-2.342l1.979-1.143a1.143,1.143,0,0,1,1.561.418l1.123,1.946a1.169,1.169,0,0,0,1.514.488,1.143,1.143,0,0,0,.485-1.6l-2-3.464a1.714,1.714,0,0,1,.628-2.342l9.9-5.714a1.714,1.714,0,0,1,2.342.627l3.429,5.938a1.714,1.714,0,0,1-.627,2.342Zm0,0" transform="translate(-148.726 -62.032)" fill="#ff895a"/>
  <path id="Path_2909" data-name="Path 2909" d="M163.122,79.8a1.143,1.143,0,0,1-1.561-.418l-1.143-1.98L162.4,76.26l1.143,1.98a1.142,1.142,0,0,1-.418,1.561Zm2.7,2.4a1.143,1.143,0,0,0-1.979,1.143l1.143,1.979,1.979-1.143Zm.683-5.673-1.143-1.98-1.979,1.143,1.143,1.98a1.143,1.143,0,0,0,1.979-1.143Zm2.286,3.959a1.143,1.143,0,0,0-1.979,1.143l1.143,1.979,1.98-1.143Zm1.673-6.245-2.286-3.959L166.2,71.423l2.286,3.959a1.143,1.143,0,0,0,1.979-1.143Zm2.286,3.959a1.143,1.143,0,0,0-1.979,1.143L173.06,83.3l1.98-1.143Zm.683-5.673-2.286-3.959-1.979,1.143,2.286,3.959a1.143,1.143,0,0,0,1.979-1.143Zm2.286,3.959a1.143,1.143,0,1,0-1.979,1.143l2.286,3.959,1.979-1.143Zm0,0" transform="translate(-142.084 -60.73)" fill="#ff2e28"/>
  <path id="Path_2910" data-name="Path 2910" d="M86.055,260.836a1.714,1.714,0,0,1-1.714,1.714A33.687,33.687,0,0,0,57.188,276.3a28.169,28.169,0,0,1-2.223-2.791,37.662,37.662,0,0,1,3.105-3.518,36.9,36.9,0,0,1,26.27-10.873,1.714,1.714,0,0,1,1.714,1.714Zm0,0" transform="translate(-48.683 -229.507)" fill="#0069a3"/>
  <path id="Path_2911" data-name="Path 2911" d="M299.286,215.835v10.286a1.714,1.714,0,0,1-1.714,1.714H286.143a1.714,1.714,0,0,1-1.714-1.714v-.571h-5.714A1.714,1.714,0,0,1,277,223.835v-5.714a1.714,1.714,0,0,1,1.714-1.714h5.714v-.571a1.714,1.714,0,0,1,1.714-1.714h11.429A1.714,1.714,0,0,1,299.286,215.835Zm0,0" transform="translate(-245.343 -189.65)" fill="#006cbc"/>
  <path id="Path_2912" data-name="Path 2912" d="M299.286,245.835v6.857a1.714,1.714,0,0,1-1.714,1.714H286.143a1.714,1.714,0,0,1-1.714-1.714v-.571h-5.714A1.714,1.714,0,0,1,277,250.407v-2.286a1.714,1.714,0,0,1,1.714-1.714H281a1.143,1.143,0,0,1,1.143,1.143v2.286a1.143,1.143,0,0,0,1.219,1.141,1.169,1.169,0,0,0,1.067-1.18v-3.961a1.714,1.714,0,0,1,1.714-1.714h11.429A1.714,1.714,0,0,1,299.286,245.835Zm0,0" transform="translate(-245.343 -216.221)" fill="#08c"/>
  <path id="Path_2913" data-name="Path 2913" d="M295.429,216.407h2.286v2.286a1.143,1.143,0,0,1-2.286,0Zm1.143,5.714a1.143,1.143,0,0,0-1.143,1.143v2.286h2.286v-2.286A1.143,1.143,0,0,0,296.571,222.121ZM292,218.692a1.143,1.143,0,1,0,2.286,0v-2.286H292Zm1.143,3.429A1.143,1.143,0,0,0,292,223.264v2.286h2.286v-2.286A1.143,1.143,0,0,0,293.143,222.121ZM300,218.692a1.143,1.143,0,0,0,2.286,0v-4.571H300Zm3.429-4.571v4.571a1.143,1.143,0,0,0,2.286,0v-4.571Zm1.143,8a1.143,1.143,0,0,0-1.143,1.143v4.571h2.286v-4.571A1.143,1.143,0,0,0,304.571,222.121Zm-3.429,0A1.143,1.143,0,0,0,300,223.264v4.571h2.286v-4.571A1.143,1.143,0,0,0,301.143,222.121Zm0,0" transform="translate(-258.629 -189.65)" fill="#024c67"/>
  <path id="Path_2914" data-name="Path 2914" d="M18.286,288.143A9.143,9.143,0,1,1,9.143,279,9.143,9.143,0,0,1,18.286,288.143Zm0,0" transform="translate(0 -247.114)" fill="#ff1717"/>
  <path id="Path_2915" data-name="Path 2915" d="M44.857,288.143a9.1,9.1,0,0,1-1.2,4.518A9.141,9.141,0,0,1,31.2,280.2a9.141,9.141,0,0,1,13.661,7.947Zm0,0" transform="translate(-26.571 -247.114)" fill="#fff5f5"/>
  <path id="Path_2916" data-name="Path 2916" d="M48.833,325.409a1.714,1.714,0,1,1-2.424,2.425l-1.617-1.616-1.616,1.616a1.714,1.714,0,0,1-2.425-2.425l1.616-1.616-1.616-1.616a1.714,1.714,0,1,1,2.425-2.425l1.616,1.616,1.616-1.616a1.714,1.714,0,0,1,2.425,2.425l-1.616,1.616Zm0,0" transform="translate(-35.65 -282.765)" fill="#eab14d"/>
  <path id="Path_2917" data-name="Path 2917" d="M41.233,330.754a3.939,3.939,0,0,0-.4.466c-.028-.025-.056-.048-.083-.075a1.714,1.714,0,0,1,0-2.425l1.616-1.616-1.616-1.616a1.714,1.714,0,0,1,0-2.425c.027-.027.055-.05.083-.075a3.859,3.859,0,0,0,.4.466l2.841,2.841a1.142,1.142,0,0,1,0,1.616Zm0,0" transform="translate(-35.65 -286.076)" fill="#ff6466"/>
</svg>
