<svg xmlns="http://www.w3.org/2000/svg" width="88" height="88" viewBox="0 0 88 88">
  <g id="car-parking" transform="translate(0 0)">
    <g id="BULINE" transform="translate(0 0)">
      <path id="XMLID_2324_" d="M88,44A44,44,0,1,1,75.113,12.887,43.862,43.862,0,0,1,88,44Z" transform="translate(0 0)" fill="#e2ffdc"/>
    </g>
    <g id="Icons" transform="translate(18.931 5.314)" opacity="0.63">
      <g id="XMLID_1976_">
        <path id="XMLID_1985_" d="M186.438,429.43c0,1.291-2.039,2.46-5.336,3.306a61.277,61.277,0,0,1-25.765,0c-3.3-.846-5.336-2.015-5.336-3.306s2.039-2.46,5.336-3.306a61.277,61.277,0,0,1,25.765,0C184.4,426.97,186.438,428.139,186.438,429.43Z" transform="translate(-143.15 -357.064)" fill="#3e436d"/>
        <path id="XMLID_1984_" d="M220.53,431.677c0,.658-1.04,1.255-2.721,1.686a31.246,31.246,0,0,1-13.138,0c-1.681-.431-2.721-1.027-2.721-1.686s1.04-1.255,2.721-1.686a31.244,31.244,0,0,1,13.138,0C219.49,430.423,220.53,431.019,220.53,431.677Z" transform="translate(-186.171 -360.823)" fill="#32314b"/>
        <g id="XMLID_1977_">
          <path id="XMLID_1983_" d="M110.143,55.989c0,5.611,4.118,14.48,9.015,23.046s10.575,16.826,13.7,21.22a2.892,2.892,0,0,0,4.717,0c3.12-4.394,8.8-12.654,13.7-21.22s9.015-17.434,9.015-23.046a25.069,25.069,0,1,0-50.138,0Z" transform="translate(-110.143 -30.92)" fill="#dd1b1b"/>
          <path id="XMLID_1982_" d="M140.352,101.661c-.527.767-1.026,1.488-1.492,2.155s-.9,1.28-1.29,1.831a2.892,2.892,0,0,1-4.717,0c-3.12-4.394-8.8-12.655-13.7-21.22s-9.015-17.434-9.015-23.046a25.082,25.082,0,0,1,17.639-23.95,25.031,25.031,0,0,0-10.058,20.081c0,5.587,4.081,14.4,8.95,22.933s10.526,16.774,13.678,21.216Z" transform="translate(-110.143 -36.312)" fill="#bf1b1b"/>
          <path id="XMLID_1981_" d="M143.255,84.743a19.378,19.378,0,1,0,5.676-13.7A19.317,19.317,0,0,0,143.255,84.743Z" transform="translate(-137.564 -59.445)" fill="#fff"/>
          <path id="XMLID_1980_" d="M166.65,103.7a19.271,19.271,0,0,1-1.979.312,19.59,19.59,0,0,1-2.039.106,19.378,19.378,0,0,1,0-38.756,19.632,19.632,0,0,1,2.039.106,19.177,19.177,0,0,1,1.979.312,19.382,19.382,0,0,0,0,37.921Z" transform="translate(-137.564 -59.441)" fill="#d1d1d1"/>
          <path id="XMLID_1979_" d="M307.674,297.32a4.371,4.371,0,0,1-1.78,1.787,1.85,1.85,0,0,1-2.874-1.607,4.663,4.663,0,0,1,2.369-4.239,1.85,1.85,0,0,1,2.874,1.607A4.368,4.368,0,0,1,307.674,297.32Z" transform="translate(-269.859 -247.937)" fill="#e53535"/>
          <path id="XMLID_1978_" d="M288.5,322.9a5.1,5.1,0,0,1-2.079,2.087,2.161,2.161,0,0,1-3.357-1.876,5.447,5.447,0,0,1,2.767-4.951,2.161,2.161,0,0,1,3.357,1.876A5.105,5.105,0,0,1,288.5,322.9Z" transform="translate(-253.33 -268.517)" fill="#ea4949"/>
        </g>
      </g>
      <g id="XMLID_253_" transform="translate(8.944 11.791)">
        <path id="XMLID_909_" d="M193.041,203.907H164.117a1.935,1.935,0,1,1,0-3.871h28.924a1.935,1.935,0,1,1,0,3.871Z" transform="translate(-162.182 -182.761)" fill="#3e436d"/>
        <path id="XMLID_908_" d="M199.648,111.914a1.125,1.125,0,0,0-.3-.345l-1.772-1.361-1.772-1.361h0l-.236-2.012-.236-2.012a5.645,5.645,0,0,0-1.316-3.746,4.557,4.557,0,0,0-3.51-1.552H178.819a4.557,4.557,0,0,0-3.51,1.552,5.645,5.645,0,0,0-1.316,3.746l-.236,2.012-.236,2.012-1.773,1.361-1.773,1.361a1.125,1.125,0,0,0-.168.158,1.173,1.173,0,0,0-.132.187,1.147,1.147,0,0,0-.149.565v4.32H199.8V112.48a1.144,1.144,0,0,0-.15-.566Z" transform="translate(-168.265 -99.525)" fill="#3e436d"/>
        <path id="XMLID_849_" d="M193.67,100.722H182.028a4.558,4.558,0,0,0-3.51,1.552,5.643,5.643,0,0,0-1.316,3.745l-.04.338-.04.338a7.983,7.983,0,0,1-3.066,5.4l-.435.334-.435.334a1.124,1.124,0,0,0-.168.158,1.172,1.172,0,0,0-.132.187,1.147,1.147,0,0,0-.149.565V116.8h-3.21v-4.32a1.147,1.147,0,0,1,.149-.565,1.162,1.162,0,0,1,.132-.187,1.116,1.116,0,0,1,.168-.158l1.772-1.361,1.772-1.361.236-2.012.236-2.012a5.645,5.645,0,0,1,1.316-3.746,4.557,4.557,0,0,1,3.51-1.552H190.5a4.828,4.828,0,0,1,1.755.318,4.453,4.453,0,0,1,1.41.879Z" transform="translate(-168.265 -99.525)" fill="#343a5b"/>
        <path id="XMLID_848_" d="M199.8,172.175v4.32h-30.27v-4.32a1.147,1.147,0,0,1,.149-.565h29.972a1.147,1.147,0,0,1,.149.565Z" transform="translate(-168.264 -159.22)" fill="#32314b"/>
        <path id="XMLID_847_" d="M220.934,119.79h-19.2l.044-.328.044-.328.311-2.32.311-2.32a1.47,1.47,0,0,1,.468-.9,1.371,1.371,0,0,1,.922-.358h15a1.372,1.372,0,0,1,.922.358,1.471,1.471,0,0,1,.469.9l.355,2.648Z" transform="translate(-194.938 -110.879)" fill="#7ccafd"/>
        <path id="XMLID_846_" d="M180.489,226.17h-1.229a1.6,1.6,0,0,1-1.6-1.6v-2.008h4.438v2.008a1.6,1.6,0,0,1-1.6,1.6Z" transform="translate(-174.996 -201.412)" fill="#27273d"/>
        <path id="XMLID_845_" d="M316.27,226.17H315.04a1.6,1.6,0,0,1-1.6-1.6v-2.008h4.438v2.008a1.6,1.6,0,0,1-1.6,1.6Z" transform="translate(-287.439 -201.412)" fill="#27273d"/>
        <path id="XMLID_844_" d="M169.763,208.371h-1.581a.689.689,0,0,1,0-1.377h1.581a.689.689,0,0,1,0,1.377Z" transform="translate(-166.58 -188.523)" fill="#ea8032"/>
        <path id="XMLID_814_" d="M332.919,208.371h-1.581a.689.689,0,0,1,0-1.377h1.581a.689.689,0,0,1,0,1.377Z" transform="translate(-301.694 -188.523)" fill="#ea8032"/>
        <path id="XMLID_813_" d="M182.691,175.662a2.108,2.108,0,1,0,.618-1.491A2.1,2.1,0,0,0,182.691,175.662Z" transform="translate(-179.166 -160.829)" fill="#27273d"/>
        <path id="XMLID_812_" d="M184.705,177.329a1.762,1.762,0,1,0,.516-1.246A1.757,1.757,0,0,0,184.705,177.329Z" transform="translate(-180.834 -162.497)" fill="#f8d572"/>
        <path id="XMLID_811_" d="M186.94,179.026a1.763,1.763,0,1,1-.231-3.445,1.794,1.794,0,0,1,.231.048,1.763,1.763,0,0,0,0,3.4Z" transform="translate(-180.834 -162.496)" fill="#e0b95a"/>
        <path id="XMLID_810_" d="M194.96,179.563a.63.63,0,1,0,.184-.445A.628.628,0,0,0,194.96,179.563Z" transform="translate(-189.326 -165.285)" fill="#ffe8ae"/>
        <path id="XMLID_808_" d="M196.242,183.131a.535.535,0,1,0,.157-.378A.533.533,0,0,0,196.242,183.131Z" transform="translate(-190.388 -168.318)" fill="#fff5de"/>
        <path id="XMLID_807_" d="M303.181,175.662a2.108,2.108,0,1,0,.618-1.491A2.1,2.1,0,0,0,303.181,175.662Z" transform="translate(-278.947 -160.829)" fill="#27273d"/>
        <path id="XMLID_805_" d="M305.2,177.329a1.762,1.762,0,1,0,.516-1.246A1.757,1.757,0,0,0,305.2,177.329Z" transform="translate(-280.615 -162.497)" fill="#f8d572"/>
        <path id="XMLID_804_" d="M307.431,179.026a1.763,1.763,0,1,1-.231-3.445,1.8,1.8,0,0,1,.231.048,1.763,1.763,0,0,0,0,3.4Z" transform="translate(-280.615 -162.496)" fill="#e0b95a"/>
        <path id="XMLID_803_" d="M315.45,179.563a.63.63,0,1,0,.184-.445A.628.628,0,0,0,315.45,179.563Z" transform="translate(-289.107 -165.285)" fill="#ffe8ae"/>
        <path id="XMLID_802_" d="M316.732,183.131a.535.535,0,1,0,.157-.378A.533.533,0,0,0,316.732,183.131Z" transform="translate(-290.169 -168.318)" fill="#fff5de"/>
        <path id="XMLID_801_" d="M235.769,182.56H224.486v-2.8a.831.831,0,0,1,.831-.831h9.622a.831.831,0,0,1,.831.831v2.8Z" transform="translate(-213.777 -165.285)" fill="#fe4583"/>
        <path id="XMLID_799_" d="M235.771,181.283v1.277H224.488v-3.17a.456.456,0,0,1,.456-.456h1.786a2.348,2.348,0,0,0,2.348,2.348h6.692Z" transform="translate(-213.779 -165.286)" fill="#d1306e"/>
        <path id="XMLID_686_" d="M239.525,211.907h-9.316V210.27a.573.573,0,0,1,.573-.573h8.17a.573.573,0,0,1,.573.573v1.638Z" transform="translate(-218.517 -190.761)" fill="#f8c952"/>
        <path id="XMLID_685_" d="M210.3,113.236l-3.276,3.277-3.276,3.277h-2.013l.044-.328.044-.328,2.948-2.949,2.948-2.949H210.3Z" transform="translate(-194.937 -110.879)" fill="#b7e2f9"/>
        <path id="XMLID_684_" d="M242.809,113.236l-3.277,3.277-3.277,3.277h-2.581l3.277-3.277,3.277-3.277h2.582Z" transform="translate(-221.386 -110.879)" fill="#b7e2f9"/>
        <path id="Path_3307" data-name="Path 3307" d="M273.849,134.992h-1.719a1.679,1.679,0,1,0-3.359,0h-1.719a3.4,3.4,0,0,1,6.8,0Z" transform="translate(-249.028 -126.082)" fill="#27273d"/>
        <path id="XMLID_255_" d="M293.595,117.2a1.222,1.222,0,0,1,.286.651.529.529,0,0,1-.722.6,1.3,1.3,0,0,1-.871-1.056.529.529,0,0,1,.722-.6A1.225,1.225,0,0,1,293.595,117.2Z" transform="translate(-269.922 -113.803)" fill="#b7e2f9"/>
        <path id="XMLID_254_" d="M298.2,122.236a.966.966,0,0,1,.226.514.417.417,0,0,1-.57.471,1.029,1.029,0,0,1-.688-.833.417.417,0,0,1,.57-.471A.965.965,0,0,1,298.2,122.236Z" transform="translate(-273.965 -118.048)" fill="#d0ebf7"/>
      </g>
    </g>
  </g>
</svg>
