<svg xmlns="http://www.w3.org/2000/svg" width="56" height="56" viewBox="0 0 56 56">
  <g id="clock_4_" data-name="clock (4)" transform="translate(0)">
    <circle id="Ellipse_370" data-name="Ellipse 370" cx="28" cy="28" r="28" transform="translate(0)" fill="#290c53"/>
    <path id="Path_2890" data-name="Path 2890" d="M243.868,0q-.75,0-1.49.039a28,28,0,0,1,0,55.921q.74.039,1.49.039a28,28,0,0,0,0-56Z" transform="translate(-215.868)" fill="#370f70"/>
    <g id="petrol-pump" transform="translate(7 -3.047)">
      <path id="Path_2918" data-name="Path 2918" d="M59.479,25.375h2.86V50.266h-2.86Z" transform="translate(-40.668 -5.831)" fill="#eab14d"/>
      <path id="Path_2919" data-name="Path 2919" d="M61.655,49.9H58.8a.316.316,0,0,1-.316-.316V24.691a.316.316,0,0,1,.316-.316h2.86a.316.316,0,0,1,.316.316V49.583a.316.316,0,0,1-.317.317Zm-2.544-.633h2.227V25.008H59.112Z" transform="translate(-39.985 -5.147)" fill="#2f3a5a"/>
      <path id="Path_2920" data-name="Path 2920" d="M44.534,65.986a.486.486,0,0,1-.485-.435,2.873,2.873,0,0,1,.063-.858c.112-.528.3-1.211.311-1.24a.316.316,0,0,1,.282-.23l.434-.032a.317.317,0,0,1,.045.633l-.21.015c-.065.244-.172.653-.242.985a2.575,2.575,0,0,0-.059.508l1.524-.086a.317.317,0,0,1,.036.633l-1.553.088A.492.492,0,0,1,44.534,65.986Z" transform="translate(-30.113 -31.686)" fill="#2f3a5a"/>
      <path id="Path_2921" data-name="Path 2921" d="M43.587,55.215a.316.316,0,0,1-.3-.221,2.429,2.429,0,0,0-1.828-1.55.316.316,0,0,1,.117-.622,3.065,3.065,0,0,1,2.313,1.983.316.316,0,0,1-.3.411Z" transform="translate(-28.17 -24.594)" fill="#2f3a5a"/>
      <path id="Path_2922" data-name="Path 2922" d="M46.326,58.988l.6-.33,1.039,1.54.071,1.005-.489.034-1.162-.753-.56.011-.009-.126.5-.414.368-.054Z" transform="translate(-31.327 -28.588)" fill="#ef5361"/>
      <path id="Path_2923" data-name="Path 2923" d="M48.2,64.473l-.489.034-1.162-.753-.561.011-.009-.125.134-.112.495-.01,1.162.753.412-.029Z" transform="translate(-31.442 -31.911)" fill="#da2a47"/>
      <path id="Path_2924" data-name="Path 2924" d="M46.864,60.561a.316.316,0,0,1-.172-.051l-1.08-.7-.464.009a.311.311,0,0,1-.322-.294l-.009-.127a.316.316,0,0,1,.113-.266l.5-.414a.316.316,0,0,1,.15-.069l-.235-.7a.316.316,0,0,1,.147-.38l.6-.33a.316.316,0,0,1,.421.111l1.039,1.682a.314.314,0,0,1,.046.144l.071,1.005a.316.316,0,0,1-.293.338l-.489.034ZM45.9,59.243l1.046.679.068,0-.043-.612-.84-1.36L46.026,58l.271.8a.316.316,0,0,1-.253.414Z" transform="translate(-30.643 -27.595)" fill="#2f3a5a"/>
      <path id="Path_2925" data-name="Path 2925" d="M43.789,74.9H42.148a.316.316,0,1,1,0-.633h1.641a.734.734,0,0,0,.733-.733l-.16-7.565a.316.316,0,0,1,.31-.323h.007a.316.316,0,0,1,.316.31l.16,7.571A1.368,1.368,0,0,1,43.789,74.9Z" transform="translate(-28.602 -33.363)" fill="#2f3a5a"/>
      <path id="Path_2926" data-name="Path 2926" d="M13.388,44.391h7.294a1.2,1.2,0,0,1,1.2,1.2V63.223H12.19V45.589a1.2,1.2,0,0,1,1.2-1.2Z" transform="translate(-8.335 -18.833)" fill="#81dafc"/>
      <path id="Path_2927" data-name="Path 2927" d="M21.7,63.039H11.689V45.247a1.358,1.358,0,0,1,1.356-1.356H20.34A1.358,1.358,0,0,1,21.7,45.247Zm-9.691-.316H21.38V45.247a1.041,1.041,0,0,0-1.04-1.04H13.046a1.041,1.041,0,0,0-1.04,1.04Z" transform="translate(-7.992 -18.491)" fill="#ffc943"/>
      <path id="Path_2928" data-name="Path 2928" d="M21.877,46.2V63.834H12.186V61.063h8.729V45.024a1.2,1.2,0,0,1,.962,1.173Z" transform="translate(-8.332 -19.266)" fill="#3dbce9"/>
      <path id="Path_2929" data-name="Path 2929" d="M21.513,62.855H11.189V44.906A1.518,1.518,0,0,1,12.7,43.391H20a1.518,1.518,0,0,1,1.515,1.515Zm-9.691-.633H20.88V44.906A.883.883,0,0,0,20,44.024H12.7a.883.883,0,0,0-.882.882Z" transform="translate(-7.65 -18.149)" fill="#2f3a5a"/>
      <rect id="Rectangle_1653" data-name="Rectangle 1653" width="13.315" height="1.522" rx="0.761" transform="translate(2.043 42.869)" fill="#d9e2e9"/>
      <path id="Path_2930" data-name="Path 2930" d="M19.334,99.124h-.429v.688H6.461v.393a.443.443,0,0,0,.443.443H19.334a.443.443,0,0,0,.443-.443v-.64A.443.443,0,0,0,19.334,99.124Z" transform="translate(-4.418 -56.256)" fill="#c8cbd2"/>
      <path id="Path_2931" data-name="Path 2931" d="M18.646,100.275H6.214a.759.759,0,0,1-.759-.759v-.639a.759.759,0,0,1,.759-.759H18.646a.759.759,0,0,1,.759.759v.639A.759.759,0,0,1,18.646,100.275ZM6.214,98.753a.127.127,0,0,0-.127.127v.639a.127.127,0,0,0,.127.127H18.646a.127.127,0,0,0,.127-.127V98.88a.127.127,0,0,0-.127-.127Z" transform="translate(-3.73 -55.568)" fill="#2f3a5a"/>
      <path id="Path_2932" data-name="Path 2932" d="M23.14,76h-6.93a.16.16,0,1,1,0-.319h6.93a.16.16,0,1,1,0,.319Z" transform="translate(-10.974 -40.225)" fill="#9297ab"/>
      <path id="Path_2933" data-name="Path 2933" d="M23.14,79.605h-6.93a.16.16,0,0,1,0-.319h6.93a.16.16,0,0,1,0,.319Z" transform="translate(-10.974 -42.692)" fill="#9297ab"/>
      <path id="Path_2934" data-name="Path 2934" d="M23.14,83.21h-6.93a.16.16,0,1,1,0-.319h6.93a.16.16,0,1,1,0,.319Z" transform="translate(-10.974 -45.157)" fill="#9297ab"/>
      <path id="Path_2935" data-name="Path 2935" d="M23.14,86.819h-6.93a.16.16,0,0,1,0-.319h6.93a.16.16,0,1,1,0,.319Z" transform="translate(-10.974 -47.625)" fill="#9297ab"/>
      <path id="Path_2936" data-name="Path 2936" d="M22.8,75.244H15.87a.316.316,0,1,1,0-.633H22.8a.316.316,0,1,1,0,.633Z" transform="translate(-10.635 -39.496)" fill="#2f3a5a"/>
      <path id="Path_2937" data-name="Path 2937" d="M22.8,78.852H15.87a.316.316,0,1,1,0-.633H22.8a.316.316,0,1,1,0,.633Z" transform="translate(-10.635 -41.963)" fill="#2f3a5a"/>
      <path id="Path_2938" data-name="Path 2938" d="M22.8,82.459H15.87a.316.316,0,1,1,0-.633H22.8a.316.316,0,1,1,0,.633Z" transform="translate(-10.635 -44.429)" fill="#2f3a5a"/>
      <path id="Path_2939" data-name="Path 2939" d="M22.8,86.066H15.87a.316.316,0,1,1,0-.633H22.8a.316.316,0,1,1,0,.633Z" transform="translate(-10.635 -46.895)" fill="#2f3a5a"/>
      <path id="Path_2940" data-name="Path 2940" d="M16.511,49.855h6.958v6.28H16.511Z" transform="translate(-11.289 -22.569)" fill="#f0f5f9"/>
      <path id="Path_2941" data-name="Path 2941" d="M23.469,50.15v6.093H16.511V55.6h6.158V50.15Z" transform="translate(-11.289 -22.771)" fill="#d9e2e9"/>
      <g id="Group_1224" data-name="Group 1224" transform="translate(4.906 27.063)">
        <path id="Path_2942" data-name="Path 2942" d="M24.233,57.513a.158.158,0,0,1-.095-.032,3.751,3.751,0,0,0-4.856-.009.158.158,0,1,1-.214-.232,4.069,4.069,0,0,1,5.263-.009.158.158,0,0,1-.095.285Z" transform="translate(-17.909 -54.018)" fill="#2f3a5a"/>
        <path id="Path_2943" data-name="Path 2943" d="M26.458,63.178a.487.487,0,1,1,.487-.487A.487.487,0,0,1,26.458,63.178Zm0-.658a.169.169,0,1,0,.121.049.171.171,0,0,0-.121-.049Z" transform="translate(-22.663 -58.075)" fill="#2f3a5a"/>
        <path id="Path_2944" data-name="Path 2944" d="M28.012,60.817a.158.158,0,0,1-.112-.27l.911-.911a.158.158,0,1,1,.224.224l-.911.911a.158.158,0,0,1-.112.046Z" transform="translate(-23.951 -56.289)" fill="#2f3a5a"/>
        <path id="Path_2945" data-name="Path 2945" d="M22.787,55.875H15.829a.316.316,0,0,1-.316-.316V49.466a.316.316,0,0,1,.316-.316h6.958a.316.316,0,0,1,.316.316v6.093A.316.316,0,0,1,22.787,55.875Zm-6.641-.633h6.325v-5.46H16.146Z" transform="translate(-15.513 -49.15)" fill="#2f3a5a"/>
        <path id="Path_2946" data-name="Path 2946" d="M113.465,65.985a.485.485,0,0,1-.483-.438,2.836,2.836,0,0,1,.063-.856c.112-.528.3-1.211.311-1.24a.316.316,0,0,1,.282-.23l.433-.032a.317.317,0,1,1,.045.633l-.21.015c-.065.244-.172.653-.242.985a2.569,2.569,0,0,0-.059.508l1.524-.086a.312.312,0,0,1,.334.3.316.316,0,0,1-.3.334l-1.554.088a.489.489,0,0,1-.146.022Z" transform="translate(-82.15 -58.749)" fill="#2f3a5a"/>
        <path id="Path_2947" data-name="Path 2947" d="M112.515,55.21a.316.316,0,0,1-.3-.221,2.428,2.428,0,0,0-1.827-1.552.316.316,0,1,1,.117-.622,3.064,3.064,0,0,1,2.314,1.984.316.316,0,0,1-.3.411Z" transform="translate(-80.205 -51.652)" fill="#2f3a5a"/>
      </g>
      <path id="Path_2948" data-name="Path 2948" d="M115.253,58.988l.6-.33,1.039,1.54.071,1.005-.489.034-1.162-.753-.561.011-.009-.126.5-.414.368-.054Z" transform="translate(-78.455 -28.588)" fill="#ef5361"/>
      <path id="Path_2949" data-name="Path 2949" d="M117.133,64.473l-.489.034-1.162-.753-.561.011-.009-.125.134-.112.495-.01,1.162.753.412-.029Z" transform="translate(-78.571 -31.911)" fill="#da2a47"/>
      <path id="Path_2950" data-name="Path 2950" d="M115.792,60.561a.316.316,0,0,1-.172-.051l-1.08-.7-.464.009a.313.313,0,0,1-.322-.294l-.009-.127a.316.316,0,0,1,.113-.265l.5-.414a.316.316,0,0,1,.15-.069l-.235-.7a.316.316,0,0,1,.147-.38l.6-.33a.316.316,0,0,1,.421.111l1.039,1.682a.314.314,0,0,1,.046.144l.071,1.005a.316.316,0,0,1-.293.338l-.489.034Zm-.963-1.318,1.047.679.068,0L115.9,59.3l-.84-1.36-.106.058.271.8a.316.316,0,0,1-.253.414Z" transform="translate(-77.772 -27.595)" fill="#2f3a5a"/>
      <path id="Path_2951" data-name="Path 2951" d="M112.716,74.9h-1.641a.316.316,0,1,1,0-.633h1.641a.734.734,0,0,0,.733-.733l-.16-7.565a.316.316,0,0,1,.31-.323h.007a.316.316,0,0,1,.316.31l.16,7.571a1.369,1.369,0,0,1-1.366,1.372Z" transform="translate(-75.731 -33.363)" fill="#2f3a5a"/>
      <path id="Path_2952" data-name="Path 2952" d="M82.315,44.391h7.294a1.2,1.2,0,0,1,1.2,1.2V63.223H81.117V45.589a1.2,1.2,0,0,1,1.2-1.2Z" transform="translate(-55.463 -18.833)" fill="#81dafc"/>
      <path id="Path_2953" data-name="Path 2953" d="M90.624,63.039H80.617V45.247a1.358,1.358,0,0,1,1.356-1.356h7.294a1.358,1.358,0,0,1,1.356,1.356Zm-9.691-.316h9.375V45.247a1.041,1.041,0,0,0-1.04-1.04H81.973a1.041,1.041,0,0,0-1.04,1.04Z" transform="translate(-55.121 -18.491)" fill="#ffc943"/>
      <path id="Path_2954" data-name="Path 2954" d="M90.8,46.2V63.834H81.113V61.063h8.729V45.024A1.2,1.2,0,0,1,90.8,46.2Z" transform="translate(-55.46 -19.266)" fill="#3dbce9"/>
      <path id="Path_2955" data-name="Path 2955" d="M90.44,62.855H80.117V44.906a1.518,1.518,0,0,1,1.515-1.515h7.294a1.518,1.518,0,0,1,1.515,1.515Zm-9.691-.633h9.058V44.906a.883.883,0,0,0-.882-.882H81.632a.883.883,0,0,0-.882.882Z" transform="translate(-54.779 -18.149)" fill="#2f3a5a"/>
      <rect id="Rectangle_1654" data-name="Rectangle 1654" width="13.315" height="1.522" rx="0.761" transform="translate(23.842 42.869)" fill="#d9e2e9"/>
      <path id="Path_2956" data-name="Path 2956" d="M88.262,99.124h-.429v.688H75.389v.393a.443.443,0,0,0,.443.443H88.263a.443.443,0,0,0,.443-.443v-.64A.443.443,0,0,0,88.262,99.124Z" transform="translate(-51.547 -56.256)" fill="#c8cbd2"/>
      <path id="Path_2957" data-name="Path 2957" d="M87.574,100.275H75.142a.759.759,0,0,1-.759-.759v-.639a.759.759,0,0,1,.759-.759H87.574a.759.759,0,0,1,.759.759v.639A.759.759,0,0,1,87.574,100.275ZM75.142,98.753a.127.127,0,0,0-.126.127v.639a.127.127,0,0,0,.127.127H87.574a.126.126,0,0,0,.127-.127V98.88a.126.126,0,0,0-.127-.127Z" transform="translate(-50.859 -55.568)" fill="#2f3a5a"/>
      <path id="Path_2958" data-name="Path 2958" d="M92.068,76H85.136a.16.16,0,0,1,0-.319h6.932a.16.16,0,0,1,0,.319Z" transform="translate(-58.102 -40.225)" fill="#9297ab"/>
      <path id="Path_2959" data-name="Path 2959" d="M92.068,79.605H85.136a.16.16,0,0,1,0-.319h6.932a.16.16,0,0,1,0,.319Z" transform="translate(-58.102 -42.692)" fill="#9297ab"/>
      <path id="Path_2960" data-name="Path 2960" d="M92.068,83.21H85.136a.16.16,0,0,1,0-.319h6.932a.16.16,0,0,1,0,.319Z" transform="translate(-58.102 -45.157)" fill="#9297ab"/>
      <path id="Path_2961" data-name="Path 2961" d="M92.068,86.819H85.136a.16.16,0,0,1,0-.319h6.932a.16.16,0,0,1,0,.319Z" transform="translate(-58.102 -47.625)" fill="#9297ab"/>
      <path id="Path_2962" data-name="Path 2962" d="M91.729,75.244H84.8a.316.316,0,0,1,0-.633h6.932a.316.316,0,0,1,0,.633Z" transform="translate(-57.763 -39.496)" fill="#2f3a5a"/>
      <path id="Path_2963" data-name="Path 2963" d="M91.729,78.852H84.8a.316.316,0,0,1,0-.633h6.932a.316.316,0,0,1,0,.633Z" transform="translate(-57.763 -41.963)" fill="#2f3a5a"/>
      <path id="Path_2964" data-name="Path 2964" d="M91.729,82.459H84.8a.316.316,0,0,1,0-.633h6.932a.316.316,0,0,1,0,.633Z" transform="translate(-57.763 -44.429)" fill="#2f3a5a"/>
      <path id="Path_2965" data-name="Path 2965" d="M91.729,86.066H84.8a.316.316,0,0,1,0-.633h6.932a.316.316,0,0,1,0,.633Z" transform="translate(-57.763 -46.895)" fill="#2f3a5a"/>
      <path id="Path_2966" data-name="Path 2966" d="M85.439,49.855H92.4v6.28H85.439Z" transform="translate(-58.418 -22.569)" fill="#f0f5f9"/>
      <path id="Path_2967" data-name="Path 2967" d="M92.4,50.15v6.093H85.439V55.6H91.6V50.15Z" transform="translate(-58.418 -22.771)" fill="#d9e2e9"/>
      <path id="Path_2968" data-name="Path 2968" d="M93.161,57.513a.158.158,0,0,1-.095-.032,3.751,3.751,0,0,0-4.856-.009A.158.158,0,1,1,88,57.24a4.069,4.069,0,0,1,5.263-.009.158.158,0,0,1-.095.285Z" transform="translate(-60.132 -26.955)" fill="#2f3a5a"/>
      <path id="Path_2969" data-name="Path 2969" d="M95.384,63.178a.487.487,0,1,1,.487-.487A.487.487,0,0,1,95.384,63.178Zm0-.658a.169.169,0,1,0,.121.049.171.171,0,0,0-.121-.049Z" transform="translate(-64.885 -31.012)" fill="#2f3a5a"/>
      <path id="Path_2970" data-name="Path 2970" d="M96.938,60.817a.158.158,0,0,1-.112-.27l.911-.911a.158.158,0,1,1,.224.224l-.911.911A.158.158,0,0,1,96.938,60.817Z" transform="translate(-66.172 -29.225)" fill="#2f3a5a"/>
      <path id="Path_2971" data-name="Path 2971" d="M91.714,55.875H84.756a.316.316,0,0,1-.316-.316V49.466a.316.316,0,0,1,.316-.316h6.958a.316.316,0,0,1,.316.316v6.093A.316.316,0,0,1,91.714,55.875Zm-6.641-.633H91.4v-5.46H85.073Z" transform="translate(-57.735 -22.087)" fill="#2f3a5a"/>
      <path id="Path_2972" data-name="Path 2972" d="M1,17.847H40.849v3.188H1Z" transform="translate(-0.684 -0.684)" fill="#eab14d"/>
      <path id="Path_2973" data-name="Path 2973" d="M40.165,20.668H.316A.316.316,0,0,1,0,20.351V17.163a.316.316,0,0,1,.316-.316H40.165a.316.316,0,0,1,.316.316v3.188a.316.316,0,0,1-.316.316ZM.633,20.035H39.849V17.48H.633Z" fill="#86dc76"/>
      <path id="Path_2974" data-name="Path 2974" d="M1,104.081H40.849V106H1Z" transform="translate(-0.684 -59.646)" fill="#d9e2e9"/>
      <path id="Path_2975" data-name="Path 2975" d="M40.165,105.635H.316A.316.316,0,0,1,0,105.318V103.4a.316.316,0,0,1,.316-.316H40.165a.316.316,0,0,1,.316.316v1.92A.316.316,0,0,1,40.165,105.635ZM.633,105H39.849v-1.287H.633Z" transform="translate(0 -58.962)" fill="#2f3a5a"/>
    </g>
  </g>
</svg>
