<svg id="user" xmlns="http://www.w3.org/2000/svg" width="145.651" height="145.651" viewBox="0 0 145.651 145.651">
  <path id="Path_3293" data-name="Path 3293" d="M78.4,8A70.4,70.4,0,0,0,24.184,123.3a55.9,55.9,0,0,1,38.1-40.066,29.131,29.131,0,1,1,32.23,0,55.9,55.9,0,0,1,38.1,40.066A70.395,70.395,0,0,0,78.4,8Z" transform="translate(-5.572 -5.572)" fill="#edf6ff"/>
  <path id="Path_3294" data-name="Path 3294" d="M131.669,133.391a29.13,29.13,0,1,0-32.228,0,55.9,55.9,0,0,0-38.1,40.066,0,0,0,0,0,0,0c.767.925,1.563,1.828,2.377,2.714.2.216.4.422.6.634.626.665,1.26,1.321,1.91,1.961.269.265.544.52.818.779.6.573,1.211,1.139,1.833,1.69.308.272.621.541.932.808q.914.783,1.855,1.534c.33.265.663.524,1,.784q.954.736,1.935,1.432c.337.24.67.486,1.012.721.689.476,1.391.932,2.1,1.384.318.2.629.41.949.609.816.5,1.646.983,2.483,1.454.221.124.437.257.66.379q1.624.888,3.3,1.7l.083.036q1.6.765,3.243,1.449c.34.143.687.269,1.029.405.791.316,1.583.626,2.389.913.427.153.859.291,1.289.437.733.248,1.471.488,2.214.709.471.141.944.272,1.42.4q1.078.3,2.173.566.739.178,1.486.342c.731.16,1.464.306,2.2.442.5.092,1,.187,1.5.267.762.124,1.529.228,2.3.328.486.063.969.134,1.457.184.85.092,1.707.158,2.563.218.415.029.825.073,1.24.095,1.279.073,2.563.114,3.86.114s2.58-.041,3.86-.109c.415-.022.828-.066,1.24-.095.859-.061,1.716-.126,2.563-.218.488-.053.971-.121,1.457-.184.77-.1,1.537-.2,2.3-.328.5-.083,1-.175,1.5-.267.738-.136,1.473-.282,2.2-.442q.746-.164,1.486-.342,1.092-.266,2.173-.566c.473-.131.949-.262,1.42-.4.745-.223,1.481-.464,2.214-.709.43-.146.864-.284,1.289-.437.8-.289,1.6-.6,2.389-.913.342-.136.689-.265,1.029-.405,1.09-.456,2.168-.935,3.229-1.444l.1-.044q1.675-.8,3.3-1.7c.223-.121.439-.255.66-.379.837-.471,1.668-.952,2.483-1.454.32-.2.634-.405.949-.609.706-.452,1.408-.91,2.1-1.384.34-.235.675-.478,1.012-.721q.979-.7,1.935-1.432c.335-.257.665-.519,1-.784q.939-.75,1.855-1.534c.313-.267.626-.536.932-.808.621-.551,1.231-1.117,1.833-1.69.272-.26.549-.517.818-.779q.976-.961,1.91-1.961c.2-.214.405-.42.6-.634.813-.886,1.609-1.789,2.377-2.714a0,0,0,0,1,0,0A55.89,55.89,0,0,0,131.669,133.391Z" transform="translate(-42.73 -55.725)" fill="#edf6ff"/>
  <path id="Path_3295" data-name="Path 3295" d="M72.825,0A72.786,72.786,0,0,0,16.687,119.162c.027.036.029.083.058.117a72.805,72.805,0,0,0,27.5,20.52c.121.051.24.107.362.158.852.359,1.714.692,2.578,1.017.34.129.68.26,1.024.384q1.118.4,2.25.762c.483.155.966.308,1.454.454q1,.3,2.012.573c.592.16,1.189.308,1.787.452s1.211.291,1.821.42c.68.146,1.367.274,2.056.4.553.1,1.1.209,1.663.3.765.124,1.534.221,2.306.32.5.063.993.136,1.493.189.874.092,1.755.158,2.639.218.41.029.818.073,1.231.095q1.934.109,3.906.112c1.313,0,2.617-.039,3.911-.107.413-.022.82-.066,1.231-.095.884-.063,1.765-.126,2.639-.218.5-.053,1-.126,1.493-.189.772-.1,1.541-.2,2.306-.32.556-.09,1.109-.2,1.663-.3.687-.126,1.374-.255,2.056-.4.609-.131,1.214-.274,1.821-.42s1.194-.294,1.787-.452c.675-.18,1.345-.374,2.012-.573.488-.146.971-.3,1.454-.454q1.132-.364,2.25-.762c.342-.124.682-.255,1.024-.384.867-.325,1.726-.66,2.578-1.017.121-.051.24-.107.362-.158a72.824,72.824,0,0,0,27.5-20.52c.029-.034.032-.083.058-.117A72.794,72.794,0,0,0,72.825,0ZM87.352,75.78a25.715,25.715,0,0,1-2.974,1.663c-.121.058-.24.119-.362.175a27.314,27.314,0,0,1-22.382,0c-.121-.056-.243-.117-.362-.175A25.514,25.514,0,0,1,58.3,75.78a26.7,26.7,0,1,1,29.052,0ZM57.4,80.907c.2.114.405.235.612.345.723.384,1.457.743,2.207,1.066.575.252,1.17.466,1.762.685.117.041.233.087.35.129a30.981,30.981,0,0,0,21,0c.117-.041.233-.087.35-.129.592-.218,1.187-.432,1.762-.685.75-.323,1.483-.682,2.207-1.066.206-.112.408-.231.612-.345.347-.194.7-.379,1.041-.587a53.594,53.594,0,0,1,35.065,36.75,68.367,68.367,0,0,1-22.022,16.978c-.036.017-.07.036-.107.053-.867.418-1.748.811-2.636,1.194-.2.085-.4.172-.6.257q-1.165.488-2.355.93c-.33.124-.66.245-.993.362-.7.25-1.406.49-2.117.719-.442.141-.886.274-1.33.405-.631.189-1.265.371-1.906.541-.539.143-1.083.274-1.626.4-.57.136-1.139.274-1.714.4-.629.134-1.262.248-1.893.362-.512.095-1.022.194-1.539.277-.711.112-1.43.2-2.146.291-.454.058-.905.126-1.364.175-.818.087-1.643.143-2.466.2-.367.024-.731.066-1.1.085q-1.8.095-3.615.1t-3.612-.1c-.369-.019-.733-.058-1.1-.085-.825-.056-1.648-.114-2.466-.2-.459-.049-.91-.117-1.364-.175-.716-.09-1.435-.18-2.146-.291-.517-.083-1.027-.182-1.539-.277-.634-.114-1.267-.231-1.893-.362-.575-.121-1.146-.26-1.714-.4-.544-.131-1.088-.26-1.626-.4-.638-.17-1.274-.354-1.906-.541-.444-.131-.888-.265-1.33-.405q-1.067-.342-2.117-.719c-.333-.119-.663-.24-.993-.362q-1.187-.444-2.355-.93c-.2-.083-.4-.17-.6-.255-.888-.381-1.77-.777-2.639-1.194-.036-.017-.07-.034-.107-.053a68.3,68.3,0,0,1-22.022-16.978A53.579,53.579,0,0,1,56.36,80.322C56.7,80.528,57.049,80.712,57.4,80.907ZM128,112.45A58.491,58.491,0,0,0,93.9,76.828a31.559,31.559,0,1,0-42.149,0,58.5,58.5,0,0,0-34.1,35.621A67.952,67.952,0,1,1,140.8,72.825,67.586,67.586,0,0,1,128,112.45Z" fill="#290c53"/>
</svg>
