<svg xmlns="http://www.w3.org/2000/svg" width="198.378" height="196.886" viewBox="0 0 198.378 196.886">
  <g id="XMLID_1_" transform="translate(0 -0.181)">
    <path id="Path_3610" data-name="Path 3610" d="M17.633,9.09,90.454,23.555a12.212,12.212,0,0,1,9.836,12.068v84.311a12.382,12.382,0,0,1-12.4,12.4H13.5a4.093,4.093,0,0,0,4.133-4.133v-4.133H87.892a4.145,4.145,0,0,0,4.133-4.133V35.623a4.153,4.153,0,0,0-3.224-4.05L17.633,17.521Z" transform="translate(98.088 64.734)" fill="#cecece"/>
    <path id="Path_3611" data-name="Path 3611" d="M37.664,14a4.133,4.133,0,0,1,0,8.266H21.133a4.133,4.133,0,1,1,0-8.266Z" transform="translate(123.518 100.409)" fill="#cecece"/>
    <path id="Path_3612" data-name="Path 3612" d="M37.664,17a4.133,4.133,0,0,1,0,8.266H21.133a4.133,4.133,0,1,1,0-8.266Z" transform="translate(123.518 122.206)" fill="#cecece"/>
    <path id="Path_3613" data-name="Path 3613" d="M37.664,20a4.133,4.133,0,0,1,0,8.266H21.133a4.133,4.133,0,1,1,0-8.266Z" transform="translate(123.518 144.004)" fill="#cecece"/>
    <path id="Path_3614" data-name="Path 3614" d="M21.266,128.852a4.133,4.133,0,1,1-8.266,0V13.132a4.394,4.394,0,0,1,1.488-3.224,4.344,4.344,0,0,1,3.472-.827l3.306.661v119.11Z" transform="translate(94.455 64.081)" fill="#cecece"/>
    <path id="Path_3615" data-name="Path 3615" d="M38.43,23v4.133a4.093,4.093,0,0,0,4.133,4.133H9.5a4.093,4.093,0,0,0,4.133-4.133V23Z" transform="translate(69.025 165.801)" fill="#cecece"/>
    <path id="Path_3616" data-name="Path 3616" d="M28.664,5a4.133,4.133,0,0,1,0,8.266H12.133a4.133,4.133,0,0,1,0-8.266Z" transform="translate(58.126 35.017)" fill="#cecece"/>
    <path id="Path_3617" data-name="Path 3617" d="M32.8,12.133a4.093,4.093,0,0,1-4.133,4.133H12.133a4.133,4.133,0,0,1,0-8.266H28.664A4.093,4.093,0,0,1,32.8,12.133Z" transform="translate(58.126 56.814)" fill="#cecece"/>
    <path id="Path_3618" data-name="Path 3618" d="M28.664,11a4.133,4.133,0,0,1,0,8.266H12.133a4.133,4.133,0,0,1,0-8.266Z" transform="translate(58.126 78.612)" fill="#cecece"/>
    <path id="Path_3619" data-name="Path 3619" d="M28.664,14a4.133,4.133,0,0,1,0,8.266H12.133a4.133,4.133,0,0,1,0-8.266Z" transform="translate(58.126 100.409)" fill="#cecece"/>
    <path id="Path_3620" data-name="Path 3620" d="M27.8,18.133a4.093,4.093,0,0,1-4.133,4.133H7.133a4.133,4.133,0,0,1,0-8.266H23.664A4.093,4.093,0,0,1,27.8,18.133Z" transform="translate(21.797 100.409)" fill="#cecece"/>
    <path id="Path_3621" data-name="Path 3621" d="M23.664,5a4.133,4.133,0,1,1,0,8.266H7.133A4.133,4.133,0,0,1,7.133,5Z" transform="translate(21.797 35.017)" fill="#cecece"/>
    <path id="Path_3622" data-name="Path 3622" d="M23.664,8a4.133,4.133,0,1,1,0,8.266H7.133A4.133,4.133,0,1,1,7.133,8Z" transform="translate(21.797 56.814)" fill="#cecece"/>
    <path id="Path_3623" data-name="Path 3623" d="M23.664,11a4.133,4.133,0,1,1,0,8.266H7.133a4.133,4.133,0,0,1,0-8.266Z" transform="translate(21.797 78.612)" fill="#cecece"/>
    <path id="Path_3624" data-name="Path 3624" d="M45.329,29.4A4.145,4.145,0,0,0,41.2,25.266H16.4A4.093,4.093,0,0,0,12.266,29.4v37.2H4V29.4A12.382,12.382,0,0,1,16.4,17H41.2a12.382,12.382,0,0,1,12.4,12.4v37.2H45.329Z" transform="translate(29.063 122.206)" fill="#cecece"/>
    <path id="Path_3625" data-name="Path 3625" d="M12.266,23H53.595v4.133a4.093,4.093,0,0,1-4.133,4.133H8.133A4.093,4.093,0,0,1,4,27.133V23Z" transform="translate(29.063 165.801)" fill="#cecece"/>
    <path id="Path_3626" data-name="Path 3626" d="M14.465.341l90.841,13.8a12.353,12.353,0,0,1,10.415,12.233V73.824l-3.306-.661a4.344,4.344,0,0,0-3.472.827,4.394,4.394,0,0,0-1.488,3.224V26.379a4.179,4.179,0,0,0-3.472-4.133L13.143,8.525a2.288,2.288,0,0,0-.744-.083,3.9,3.9,0,0,0-2.645.992,3.952,3.952,0,0,0-1.488,3.141V184.668A4.145,4.145,0,0,0,12.4,188.8H33.063v4.133a4.093,4.093,0,0,0,4.133,4.133H12.4A12.382,12.382,0,0,1,0,184.668V12.575A12.171,12.171,0,0,1,4.381,3.152,12.407,12.407,0,0,1,14.465.341Z" transform="translate(0 0)" fill="#cecece"/>
  </g>
</svg>
